<?xml version="1.0" encoding="utf-8"?>
<!-- Generator: Adobe Illustrator 18.1.0, SVG Export Plug-In . SVG Version: 6.00 Build 0)  -->
<svg version="1.1" id="Layer_1" xmlns="http://www.w3.org/2000/svg" xmlns:xlink="http://www.w3.org/1999/xlink" x="0px" y="0px"
	 viewBox="0 0 40 40" enable-background="new 0 0 40 40" xml:space="preserve">
<g>
	<g>
		<path fill="#C88F3B" d="M34.4,10.6L20.9,2.9c-0.6-0.3-1.3-0.3-1.9,0L5.6,10.6c-0.6,0.3-0.9,1-0.9,1.6v15.5c0,0.7,0.4,1.3,0.9,1.6
			l13.5,7.8c0.6,0.3,1.3,0.3,1.9,0l13.5-7.8c0.6-0.3,0.9-0.9,0.9-1.6V12.3C35.4,11.6,35,11,34.4,10.6z"/>
	</g>
	<g>
		<path fill="#FFFFFF" d="M14.6,7.6c-0.1,0-0.1,0-0.2,0.1c-0.3,0.1-0.4,0.4-0.3,0.7c0.1,0.2,0.3,0.3,0.5,0.3c0.1,0,0.2,0,0.2-0.1
			c0.1-0.1,0.2-0.2,0.3-0.3c0-0.1,0-0.3,0-0.4C15,7.8,14.8,7.6,14.6,7.6z"/>
		<path fill="#FFFFFF" d="M9.4,12.5c-0.2-0.2-0.6-0.1-0.8,0.1c-0.1,0.1-0.1,0.3-0.1,0.4s0.1,0.3,0.2,0.3c0.1,0.1,0.2,0.1,0.3,0.1
			c0.2,0,0.4-0.1,0.5-0.2c0.1-0.1,0.1-0.3,0.1-0.4C9.6,12.7,9.5,12.6,9.4,12.5z"/>
		<path fill="#FFFFFF" d="M8.1,23.5C8,23.2,7.7,23,7.4,23.1c-0.1,0-0.3,0.1-0.3,0.3C7,23.5,7,23.7,7,23.8c0.1,0.2,0.3,0.4,0.5,0.4
			c0,0,0.1,0,0.1,0C8,24.1,8.1,23.8,8.1,23.5z"/>
		<path fill="#FFFFFF" d="M9.8,11.1c-0.2,0.2-0.2,0.6,0.1,0.8C10,12,10.1,12,10.2,12c0.2,0,0.3-0.1,0.4-0.2c0.2-0.2,0.2-0.6-0.1-0.8
			C10.3,10.9,10,10.9,9.8,11.1z"/>
		<path fill="#FFFFFF" d="M8.8,26.5c-0.1,0.1-0.2,0.2-0.2,0.3c0,0.1,0,0.3,0.1,0.5c0.1,0.1,0.3,0.2,0.5,0.2c0.1,0,0.2,0,0.3-0.1
			c0.3-0.2,0.3-0.5,0.2-0.8C9.3,26.5,9,26.4,8.8,26.5z"/>
		<path fill="#FFFFFF" d="M8.7,25.1c-0.1-0.3-0.4-0.4-0.7-0.3c-0.3,0.1-0.4,0.5-0.3,0.7c0.1,0.2,0.3,0.3,0.5,0.3c0.1,0,0.2,0,0.2,0
			C8.7,25.7,8.8,25.4,8.7,25.1z"/>
		<path fill="#FFFFFF" d="M14.8,31.3c-0.3-0.1-0.6,0-0.7,0.3c-0.1,0.1-0.1,0.3,0,0.4c0.1,0.1,0.2,0.2,0.3,0.3c0.1,0,0.2,0.1,0.2,0.1
			c0.2,0,0.4-0.1,0.5-0.3c0.1-0.1,0.1-0.3,0-0.4C15,31.5,14.9,31.4,14.8,31.3z"/>
		<path fill="#FFFFFF" d="M12.7,8.6c-0.2,0.2-0.3,0.5-0.2,0.8c0.1,0.2,0.3,0.2,0.5,0.2c0.1,0,0.2,0,0.3-0.1c0.1-0.1,0.2-0.2,0.2-0.4
			c0-0.1,0-0.3-0.1-0.4C13.3,8.5,13,8.4,12.7,8.6z"/>
		<path fill="#FFFFFF" d="M11.1,9.8C11,9.9,11,10,11,10.1c0,0.1,0,0.3,0.1,0.4c0.1,0.1,0.3,0.2,0.4,0.2c0.1,0,0.3,0,0.4-0.1
			c0.1-0.1,0.2-0.2,0.2-0.4c0-0.1,0-0.3-0.1-0.4C11.7,9.6,11.4,9.6,11.1,9.8z"/>
		<path fill="#FFFFFF" d="M12.5,30.6c-0.2,0.2-0.1,0.6,0.2,0.8c0.1,0.1,0.2,0.1,0.3,0.1c0.2,0,0.4-0.1,0.5-0.3
			c0.1-0.3,0.1-0.6-0.2-0.8C13,30.3,12.6,30.4,12.5,30.6z"/>
		<path fill="#FFFFFF" d="M11.1,29.4c-0.2,0.2-0.2,0.6,0,0.8c0.1,0.1,0.2,0.1,0.4,0.1c0.2,0,0.3-0.1,0.4-0.2C12,30,12,29.9,12,29.8
			c0-0.1-0.1-0.3-0.2-0.4C11.6,29.2,11.3,29.2,11.1,29.4z"/>
		<path fill="#FFFFFF" d="M9.8,28.1c-0.1,0.1-0.2,0.2-0.2,0.4c0,0.1,0,0.3,0.1,0.4C9.9,29,10,29,10.2,29c0.1,0,0.3-0.1,0.3-0.1
			c0.1-0.1,0.2-0.2,0.2-0.4c0-0.1,0-0.3-0.1-0.4C10.4,27.9,10,27.9,9.8,28.1z"/>
		<path fill="#FFFFFF" d="M32,16.1c-0.1,0.1-0.1,0.3,0,0.4c0.1,0.2,0.3,0.4,0.5,0.4c0,0,0.1,0,0.2,0c0.3-0.1,0.4-0.4,0.4-0.7
			c-0.1-0.2-0.3-0.4-0.5-0.4c-0.1,0-0.1,0-0.1,0C32.2,15.9,32.1,15.9,32,16.1z"/>
		<path fill="#FFFFFF" d="M31.3,14.8c0.1,0.2,0.3,0.3,0.5,0.3c0.1,0,0.1,0,0.2,0c0.3-0.1,0.4-0.5,0.3-0.7c-0.1-0.3-0.5-0.4-0.7-0.2
			C31.3,14.2,31.2,14.5,31.3,14.8z"/>
		<path fill="#FFFFFF" d="M32.8,17.6c-0.3,0-0.5,0.3-0.5,0.6c0,0.3,0.3,0.5,0.5,0.5l0.1,0c0.3-0.1,0.5-0.3,0.4-0.6
			C33.4,17.8,33.1,17.6,32.8,17.6L32.8,17.6z"/>
		<path fill="#FFFFFF" d="M30.9,13.5c0.1,0,0.2,0,0.3-0.1c0.1-0.1,0.2-0.2,0.2-0.4c0-0.1,0-0.3-0.1-0.4c-0.1-0.2-0.5-0.3-0.8-0.2
			c-0.3,0.2-0.3,0.5-0.2,0.7C30.6,13.4,30.7,13.5,30.9,13.5z"/>
		<path fill="#FFFFFF" d="M33,19.5c-0.3,0-0.5,0.3-0.5,0.5c0,0.1,0,0.3,0.1,0.4c0.1,0.1,0.3,0.2,0.4,0.2h0c0.3,0,0.5-0.2,0.5-0.5
			C33.5,19.7,33.3,19.5,33,19.5z"/>
		<path fill="#FFFFFF" d="M7.2,22.4c0.3,0,0.5-0.3,0.5-0.6c0-0.3-0.3-0.5-0.5-0.5l-0.1,0c-0.1,0-0.3,0.1-0.4,0.2
			c-0.1,0.1-0.1,0.3-0.1,0.4C6.7,22.2,6.9,22.4,7.2,22.4L7.2,22.4z"/>
		<path fill="#FFFFFF" d="M7,20.5l0-0.2L7,20.5c0.1,0,0.3-0.1,0.4-0.2c0.1-0.1,0.2-0.2,0.2-0.4c0-0.3-0.2-0.5-0.5-0.5
			c-0.3,0-0.5,0.2-0.5,0.6c0,0.1,0.1,0.3,0.2,0.4C6.7,20.5,6.9,20.5,7,20.5z"/>
		<path fill="#FFFFFF" d="M8,15.1c0.1,0,0.2,0.1,0.2,0.1c0.2,0,0.4-0.1,0.5-0.3c0.1-0.1,0.1-0.3,0-0.4c-0.1-0.1-0.2-0.2-0.3-0.3
			c-0.3-0.1-0.6,0-0.7,0.2c-0.1,0.1-0.1,0.3,0,0.4C7.7,14.9,7.8,15,8,15.1z"/>
		<path fill="#FFFFFF" d="M7.1,18.7L7.1,18.7c0.4,0,0.6-0.2,0.6-0.5c0-0.3-0.2-0.6-0.5-0.6l-0.1,0c-0.3,0-0.5,0.2-0.5,0.5
			c0,0.1,0,0.3,0.1,0.4C6.8,18.6,6.9,18.6,7.1,18.7z"/>
		<path fill="#FFFFFF" d="M7.4,16.8c0.1,0,0.1,0,0.2,0c0.2,0,0.5-0.2,0.5-0.4c0-0.2,0-0.3-0.1-0.4c-0.1-0.1-0.2-0.2-0.3-0.2
			c-0.3-0.1-0.6,0.1-0.7,0.4C7,16.5,7.1,16.8,7.4,16.8z"/>
		<path fill="#FFFFFF" d="M32.9,21.3L32.9,21.3c-0.4,0-0.6,0.2-0.6,0.5c0,0.3,0.2,0.5,0.5,0.6l0.1,0c0.3,0,0.5-0.2,0.5-0.5
			C33.4,21.6,33.2,21.4,32.9,21.3z"/>
		<path fill="#FFFFFF" d="M28.1,29.4c-0.2,0.2-0.2,0.5,0,0.8c0.1,0.1,0.3,0.2,0.4,0.2c0.1,0,0.3,0,0.3-0.1C29,30.1,29,30,29,29.8
			c0-0.1,0-0.3-0.1-0.4C28.7,29.2,28.3,29.2,28.1,29.4z"/>
		<path fill="#FFFFFF" d="M29.4,28.1c-0.1,0.1-0.1,0.3-0.1,0.4c0,0.1,0.1,0.3,0.2,0.4c0.1,0.1,0.2,0.1,0.4,0.1
			c0.2,0,0.3-0.1,0.4-0.2c0.2-0.2,0.2-0.6,0-0.8C30,27.9,29.6,27.9,29.4,28.1z"/>
		<path fill="#FFFFFF" d="M16.5,31.9c-0.3-0.1-0.6,0.1-0.7,0.4c-0.1,0.3,0.1,0.6,0.4,0.7c0.1,0,0.1,0,0.2,0c0.2,0,0.5-0.2,0.5-0.4
			C16.9,32.3,16.8,32,16.5,31.9z"/>
		<path fill="#FFFFFF" d="M27.3,8.6c-0.2-0.1-0.6-0.1-0.8,0.2c-0.1,0.1-0.1,0.3-0.1,0.4c0,0.1,0.1,0.3,0.2,0.3
			c0.1,0.1,0.2,0.1,0.3,0.1c0.2,0,0.4-0.1,0.5-0.2C27.6,9.1,27.6,8.8,27.3,8.6z"/>
		<path fill="#FFFFFF" d="M26.7,30.5c-0.1,0.1-0.2,0.2-0.2,0.4c0,0.1,0,0.3,0.1,0.4c0.1,0.1,0.3,0.2,0.5,0.2c0.1,0,0.2,0,0.3-0.1
			c0.1-0.1,0.2-0.2,0.2-0.3c0-0.1,0-0.3-0.1-0.4C27.3,30.4,27,30.3,26.7,30.5z"/>
		<path fill="#FFFFFF" d="M32,24.9c-0.3-0.1-0.6,0-0.7,0.3c-0.1,0.3,0,0.6,0.3,0.7c0.1,0,0.1,0,0.2,0c0,0,0,0,0,0
			c0.2,0,0.4-0.1,0.5-0.3C32.4,25.3,32.3,25,32,24.9z"/>
		<path fill="#FFFFFF" d="M32.6,23.1c-0.3-0.1-0.6,0.1-0.7,0.4c0,0.1,0,0.3,0,0.4c0.1,0.1,0.2,0.2,0.3,0.3c0.1,0,0.1,0,0.2,0
			c0.2,0,0.4-0.2,0.5-0.4C33.1,23.5,32.9,23.2,32.6,23.1z"/>
		<path fill="#FFFFFF" d="M29.5,11.1c-0.1,0.1-0.2,0.2-0.2,0.4c0,0.1,0,0.3,0.1,0.4c0.1,0.1,0.3,0.2,0.4,0.2c0.1,0,0.3,0,0.3-0.1
			c0.2-0.2,0.3-0.5,0.1-0.8C30,10.9,29.7,10.9,29.5,11.1z"/>
		<path fill="#FFFFFF" d="M25.6,7.7c-0.3-0.1-0.6,0-0.7,0.3c-0.1,0.1-0.1,0.3,0,0.4c0,0.1,0.1,0.2,0.3,0.3c0.1,0,0.2,0.1,0.2,0.1
			c0.2,0,0.4-0.1,0.5-0.3C26,8.1,25.9,7.8,25.6,7.7z"/>
		<path fill="#FFFFFF" d="M31.2,26.6c-0.3-0.2-0.6-0.1-0.7,0.2c-0.2,0.3-0.1,0.6,0.2,0.8c0.1,0.1,0.2,0.1,0.3,0.1
			c0.2,0,0.4-0.1,0.4-0.2c0.1-0.1,0.1-0.3,0.1-0.4C31.4,26.8,31.3,26.6,31.2,26.6z"/>
		<path fill="#FFFFFF" d="M28.1,9.8c-0.2,0.2-0.2,0.6,0.1,0.8c0.1,0.1,0.2,0.1,0.3,0.1c0.2,0,0.3-0.1,0.4-0.2
			c0.2-0.2,0.2-0.6-0.1-0.8C28.6,9.6,28.3,9.6,28.1,9.8z"/>
		<path fill="#FFFFFF" d="M18.1,6.6L18.1,6.6c-0.4,0.1-0.6,0.3-0.5,0.6c0,0.3,0.2,0.5,0.5,0.5l0.1,0c0.1,0,0.3-0.1,0.3-0.2
			c0.1-0.1,0.1-0.3,0.1-0.4C18.7,6.8,18.4,6.6,18.1,6.6z"/>
		<path fill="#FFFFFF" d="M20,32.4c-0.3,0-0.5,0.2-0.5,0.5c0,0.1,0.1,0.3,0.2,0.4c0.1,0.1,0.2,0.2,0.4,0.2h0c0.1,0,0.3-0.1,0.4-0.2
			c0.1-0.1,0.2-0.2,0.2-0.4C20.5,32.7,20.3,32.4,20,32.4z"/>
		<path fill="#FFFFFF" d="M18.2,32.3L18.2,32.3c-0.4,0-0.6,0.2-0.6,0.5c-0.1,0.3,0.1,0.6,0.5,0.6l0.1,0c0.3,0,0.5-0.2,0.5-0.5
			C18.7,32.6,18.5,32.4,18.2,32.3z"/>
		<path fill="#FFFFFF" d="M20,6.5c-0.3,0-0.5,0.2-0.5,0.5c0,0.3,0.2,0.5,0.5,0.5h0c0.1,0,0.3-0.1,0.4-0.2c0.1-0.1,0.2-0.2,0.2-0.4
			C20.6,6.7,20.3,6.5,20,6.5z"/>
		<path fill="#FFFFFF" d="M16.2,7c-0.3,0.1-0.4,0.4-0.4,0.7c0.1,0.2,0.3,0.4,0.5,0.4c0.1,0,0.1,0,0.2,0c0.1,0,0.3-0.1,0.3-0.3
			c0.1-0.1,0.1-0.3,0-0.4C16.8,7.1,16.5,6.9,16.2,7z"/>
		<path fill="#FFFFFF" d="M21.8,32.3L21.8,32.3c-0.4,0.1-0.6,0.3-0.5,0.6c0,0.3,0.3,0.5,0.5,0.5l0.1,0c0.1,0,0.3-0.1,0.4-0.2
			c0.1-0.1,0.1-0.3,0.1-0.4C22.3,32.5,22.1,32.3,21.8,32.3z"/>
		<path fill="#FFFFFF" d="M23.6,31.9c0,0-0.1,0-0.2,0c-0.3,0.1-0.4,0.4-0.4,0.7c0.1,0.2,0.3,0.4,0.5,0.4c0.1,0,0.1,0,0.1,0
			c0.1,0,0.3-0.1,0.3-0.3c0.1-0.1,0.1-0.3,0-0.4C24.1,32.1,23.9,31.9,23.6,31.9z"/>
		<path fill="#FFFFFF" d="M25.4,31.3c-0.1,0-0.2,0-0.2,0c-0.1,0.1-0.2,0.2-0.3,0.3c-0.1,0.1,0,0.3,0,0.4c0.1,0.2,0.3,0.3,0.5,0.3
			c0.1,0,0.2,0,0.2,0c0.1-0.1,0.3-0.2,0.3-0.3c0.1-0.1,0-0.3,0-0.4C25.8,31.4,25.6,31.3,25.4,31.3z"/>
		<path fill="#FFFFFF" d="M23.8,7c-0.3-0.1-0.6,0.1-0.7,0.4c-0.1,0.3,0.1,0.6,0.4,0.7c0.1,0,0.1,0,0.2,0c0.2,0,0.4-0.2,0.5-0.4
			c0-0.1,0-0.3,0-0.4C24.1,7.1,24,7.1,23.8,7z"/>
		<path fill="#FFFFFF" d="M21.9,6.6L21.9,6.6c-0.4,0-0.6,0.2-0.6,0.5c0,0.1,0,0.3,0.1,0.4c0.1,0.1,0.2,0.2,0.3,0.2l0.1,0
			c0.3,0,0.5-0.2,0.5-0.5C22.4,6.9,22.2,6.6,21.9,6.6z"/>
	</g>
	<g>
		<g>
			<g>
				<path fill="#8A652F" d="M20,8.9c-6.1,0-11.1,5-11.1,11.1s5,11.1,11.1,11.1s11.1-5,11.1-11.1S26.1,8.9,20,8.9z"/>
			</g>
		</g>
	</g>
	<g>
		<path fill="#FFFFFF" d="M17.1,15.7c0-0.1,0.1-0.2,0.2-0.2h2.9c1.5,0,2.7,1,2.7,2.4c0,1-0.8,1.8-1.4,2c0.7,0.2,1.7,0.9,1.7,2.1
			c0,1.4-1.2,2.5-2.8,2.5h-3.1c-0.1,0-0.2-0.1-0.2-0.2V15.7z M20.1,19.3c0.7,0,1.1-0.5,1.1-1.2c0-0.6-0.4-1.1-1.1-1.1h-1.4v2.3H20.1
			z M20.3,23c0.6,0,1.2-0.5,1.2-1.2c0-0.6-0.6-1.1-1.3-1.1h-1.4V23H20.3z"/>
	</g>
</g>
</svg>
