<?xml version="1.0" encoding="utf-8"?>
<!-- Generator: Adobe Illustrator 18.1.0, SVG Export Plug-In . SVG Version: 6.00 Build 0)  -->
<svg version="1.1" id="Layer_1" xmlns="http://www.w3.org/2000/svg" xmlns:xlink="http://www.w3.org/1999/xlink" x="0px" y="0px"
	 viewBox="0 0 40 40" enable-background="new 0 0 40 40" xml:space="preserve">
<g>
	<g>
		<path fill="#FDC20F" d="M34.4,10.6L20.9,2.9c-0.6-0.3-1.3-0.3-1.9,0L5.6,10.6c-0.6,0.3-0.9,1-0.9,1.6v15.5c0,0.7,0.4,1.3,0.9,1.6
			l13.5,7.8c0.6,0.3,1.3,0.3,1.9,0l13.5-7.8c0.6-0.3,0.9-0.9,0.9-1.6V12.3C35.4,11.6,35,11,34.4,10.6z"/>
	</g>
	<path fill="#FFFFFF" d="M31.8,21l1.6-1l-1.6-1l1.5-1.2l-1.8-0.7l1.2-1.5l-1.9-0.4l1-1.6l-1.9-0.1l0.7-1.8L28.7,12l0.4-1.9l-1.8,0.5
		l0.1-1.9l-1.7,0.8l-0.2-1.9l-1.6,1.1l-0.5-1.8L22,8.3l-0.8-1.7L20,8.1l-1.1-1.6L18,8.3l-1.4-1.4l-0.5,1.8l-1.6-1.1l-0.2,1.9
		l-1.7-0.8l0.1,1.9l-1.8-0.5l0.4,1.9l-1.9-0.2l0.7,1.8l-1.9,0.1l1,1.6l-1.9,0.4l1.2,1.5l-1.8,0.7L8.2,19l-1.6,1l1.6,1l-1.5,1.2
		l1.8,0.7l-1.2,1.5l1.9,0.4l-1,1.6l1.9,0.1l-0.7,1.8l1.9-0.2l-0.4,1.9l1.8-0.5l-0.1,1.9l1.7-0.8l0.2,1.9l1.6-1.1l0.5,1.8l1.4-1.4
		l0.8,1.7l1.1-1.6l1.1,1.6l0.8-1.7l1.4,1.4l0.5-1.8l1.6,1.1l0.2-1.9l1.7,0.8l-0.1-1.9l1.8,0.5L28.7,28l1.9,0.2l-0.7-1.8l1.9-0.1
		l-1-1.6l1.9-0.4l-1.2-1.5l1.8-0.7L31.8,21z M20,31.1c-6.1,0-11.1-5-11.1-11.1S13.9,8.9,20,8.9s11.1,5,11.1,11.1S26.1,31.1,20,31.1z
		"/>
	<path fill="#FAA31B" d="M20,8.9c-6.1,0-11.1,5-11.1,11.1s5,11.1,11.1,11.1s11.1-5,11.1-11.1S26.1,8.9,20,8.9z"/>
	<g>
		<path fill="#FFFFFF" d="M20.2,15.4c1.1,0,2.2,0.4,3.1,1.2c0.1,0.1,0.1,0.3,0,0.4l-0.8,0.8c-0.1,0.1-0.2,0.1-0.3,0
			c-0.5-0.5-1.2-0.7-1.9-0.7c-1.6,0-2.8,1.4-2.8,2.9c0,1.6,1.3,2.9,2.9,2.9c0.7,0,1.3-0.2,1.5-0.3v-1.1h-1c-0.1,0-0.2-0.1-0.2-0.2
			v-1c0-0.1,0.1-0.2,0.2-0.2h2.4c0.1,0,0.2,0.1,0.2,0.2v3.3c0,0.1-0.1,0.2-0.1,0.2c0,0-1.3,0.8-3.1,0.8c-2.5,0-4.6-2-4.6-4.5
			S17.6,15.4,20.2,15.4z"/>
	</g>
</g>
</svg>
