<?xml version="1.0" encoding="utf-8"?>
<!-- Generator: Adobe Illustrator 18.1.0, SVG Export Plug-In . SVG Version: 6.00 Build 0)  -->
<svg version="1.1" id="Layer_1" xmlns="http://www.w3.org/2000/svg" xmlns:xlink="http://www.w3.org/1999/xlink" x="0px" y="0px"
	 viewBox="0 0 40 40" enable-background="new 0 0 40 40" xml:space="preserve">
<g>
	<g>
		<path fill="#BFB7AA" d="M34.4,10.6L20.9,2.9c-0.6-0.3-1.3-0.3-1.9,0L5.6,10.6c-0.6,0.3-0.9,1-0.9,1.6v15.5c0,0.7,0.4,1.3,0.9,1.6
			l13.5,7.8c0.6,0.3,1.3,0.3,1.9,0l13.5-7.8c0.6-0.3,0.9-0.9,0.9-1.6V12.3C35.4,11.6,35,11,34.4,10.6z"/>
	</g>
	<path fill="#7F7A71" d="M20,8.9c-6.1,0-11.1,5-11.1,11.1c0,6.1,5,11.1,11.1,11.1c6.1,0,11.1-5,11.1-11.1C31.1,13.9,26.1,8.9,20,8.9
		z"/>
	<path fill="#FFFFFF" d="M20,8.3C13.5,8.3,8.3,13.5,8.3,20S13.5,31.7,20,31.7S31.7,26.5,31.7,20S26.5,8.3,20,8.3z M20,31.1
		c-6.1,0-11.1-5-11.1-11.1c0-6.1,5-11.1,11.1-11.1c6.1,0,11.1,5,11.1,11.1C31.1,26.1,26.1,31.1,20,31.1z"/>
	<g>
		<path fill="#FFFFFF" d="M17.5,15.8c0-0.1,0.1-0.2,0.2-0.2h3c1.6,0,2.9,1.3,2.9,2.8c0,1.6-1.3,2.9-2.9,2.9h-1.6v3
			c0,0.1-0.1,0.2-0.2,0.2h-1.2c-0.1,0-0.2-0.1-0.2-0.2V15.8z M20.7,19.7c0.7,0,1.3-0.6,1.3-1.3c0-0.7-0.6-1.2-1.3-1.2h-1.5v2.6H20.7
			z"/>
	</g>
</g>
</svg>
