<?xml version="1.0" encoding="utf-8"?>
<!-- Generator: Adobe Illustrator 18.1.0, SVG Export Plug-In . SVG Version: 6.00 Build 0)  -->
<svg version="1.1" id="Layer_1" xmlns="http://www.w3.org/2000/svg" xmlns:xlink="http://www.w3.org/1999/xlink" x="0px" y="0px"
	 viewBox="0 0 40 40" enable-background="new 0 0 40 40" xml:space="preserve">
<g>
	<g>
		<path fill="#E5E5E5" d="M34.4,10.6L20.9,2.9c-0.6-0.3-1.3-0.3-1.9,0L5.6,10.6c-0.6,0.3-0.9,1-0.9,1.6v15.5c0,0.7,0.4,1.3,0.9,1.6
			l13.5,7.8c0.6,0.3,1.3,0.3,1.9,0l13.5-7.8c0.6-0.3,0.9-0.9,0.9-1.6V12.3C35.4,11.6,35,11,34.4,10.6z"/>
	</g>
	<g>
		<g>
			<g>
				<path fill="#A5A5A5" d="M20,8.9c-6.1,0-11.1,5-11.1,11.1s5,11.1,11.1,11.1s11.1-5,11.1-11.1S26.1,8.9,20,8.9z"/>
			</g>
		</g>
	</g>
	<g>
		<path fill="#FFFFFF" d="M16.8,15.7c0-0.1,0.1-0.2,0.2-0.2h3.7c1.5,0,2.8,1.2,2.8,2.8c0,1.2-0.8,2.1-1.9,2.6l1.8,3.3
			c0.1,0.2,0,0.4-0.2,0.4h-1.3c-0.1,0-0.2-0.1-0.2-0.1L19.9,21h-1.4v3.3c0,0.1-0.1,0.2-0.2,0.2h-1.2c-0.1,0-0.2-0.1-0.2-0.2V15.7z
			 M20.6,19.6c0.7,0,1.3-0.6,1.3-1.3c0-0.7-0.6-1.2-1.3-1.2h-2.1v2.6H20.6z"/>
	</g>
</g>
</svg>
