<?xml version="1.0" encoding="utf-8"?>
<!-- Generator: Adobe Illustrator 18.1.0, SVG Export Plug-In . SVG Version: 6.00 Build 0)  -->
<svg version="1.1" id="Layer_1" xmlns="http://www.w3.org/2000/svg" xmlns:xlink="http://www.w3.org/1999/xlink" x="0px" y="0px"
	 viewBox="0 0 40 40" enable-background="new 0 0 40 40" xml:space="preserve">
<g>
	<g>
		<path fill="#767677" d="M34.4,10.6L20.9,2.9c-0.6-0.3-1.3-0.3-1.9,0L5.6,10.6c-0.6,0.3-0.9,1-0.9,1.6v15.5c0,0.7,0.4,1.3,0.9,1.6
			l13.5,7.8c0.6,0.3,1.3,0.3,1.9,0l13.5-7.8c0.6-0.3,0.9-0.9,0.9-1.6V12.3C35.4,11.6,35,11,34.4,10.6z"/>
	</g>
	<g>
		<g>
			<g>
				<path fill="#B5B6B6" d="M20,8.9c-6.1,0-11.1,5-11.1,11.1s5,11.1,11.1,11.1s11.1-5,11.1-11.1S26.1,8.9,20,8.9z"/>
			</g>
		</g>
	</g>
	<path fill="#FFFFFF" d="M32.8,20.6c-0.7-0.4-0.7-1.1,0-1.6c0.7-0.4,0.6-1-0.2-1.3c-0.7-0.3-0.9-1-0.4-1.5c0.5-0.6,0.3-1.1-0.4-1.2
		c-0.8-0.1-1.1-0.7-0.7-1.4c0.4-0.7,0.1-1.2-0.7-1.1c-0.8,0.1-1.2-0.5-1-1.2c0.2-0.8-0.2-1.2-0.9-0.9c-0.7,0.3-1.3-0.2-1.2-1
		c0.1-0.8-0.4-1.1-1.1-0.7c-0.7,0.4-1.3,0.1-1.4-0.7c-0.1-0.8-0.7-1-1.2-0.4c-0.6,0.6-1.3,0.4-1.5-0.3c-0.3-0.7-0.9-0.8-1.3-0.1
		c-0.4,0.7-1.1,0.7-1.6,0c-0.4-0.7-1-0.6-1.3,0.2c-0.3,0.7-1,0.9-1.5,0.4c-0.6-0.5-1.1-0.3-1.2,0.4c-0.1,0.8-0.7,1.1-1.4,0.7
		c-0.7-0.4-1.2-0.1-1.1,0.7c0.1,0.8-0.5,1.2-1.2,1c-0.8-0.2-1.2,0.2-0.9,0.9c0.3,0.7-0.2,1.3-1,1.2c-0.8-0.1-1.1,0.4-0.7,1.1
		c0.4,0.7,0.1,1.3-0.7,1.4c-0.8,0.1-1,0.7-0.4,1.2c0.6,0.6,0.4,1.3-0.3,1.5c-0.7,0.3-0.8,0.9-0.1,1.3c0.7,0.4,0.7,1.1,0,1.6
		c-0.7,0.4-0.6,1,0.2,1.3c0.7,0.3,0.9,1,0.4,1.5c-0.5,0.6-0.3,1.1,0.4,1.2c0.8,0.1,1.1,0.7,0.7,1.4c-0.4,0.7-0.1,1.2,0.7,1.1
		c0.8-0.1,1.2,0.5,1,1.2c-0.2,0.8,0.2,1.2,0.9,0.9c0.7-0.3,1.3,0.2,1.2,1c-0.1,0.8,0.4,1.1,1.1,0.7c0.7-0.4,1.3-0.1,1.4,0.7
		c0.1,0.8,0.7,1,1.2,0.4c0.6-0.6,1.3-0.4,1.5,0.3c0.3,0.7,0.9,0.8,1.3,0.1c0.4-0.7,1.1-0.7,1.6,0c0.4,0.7,1,0.6,1.3-0.2
		c0.3-0.7,1-0.9,1.5-0.4c0.6,0.5,1.1,0.3,1.2-0.4c0.1-0.8,0.7-1.1,1.4-0.7c0.7,0.4,1.2,0.1,1.1-0.7c-0.1-0.8,0.5-1.2,1.2-1
		c0.8,0.2,1.2-0.2,0.9-0.9c-0.3-0.7,0.2-1.3,1-1.2c0.8,0.1,1.1-0.4,0.7-1.1c-0.4-0.7-0.1-1.3,0.7-1.4c0.8-0.1,1-0.7,0.4-1.2
		c-0.6-0.6-0.4-1.3,0.3-1.5C33.4,21.6,33.5,21.1,32.8,20.6z M20,31.7c-6.5,0-11.7-5.2-11.7-11.7c0-6.5,5.2-11.7,11.7-11.7
		c6.5,0,11.7,5.2,11.7,11.7C31.7,26.5,26.5,31.7,20,31.7z"/>
	<g>
		<path fill="#FFFFFF" d="M17.1,23.3l0.5-0.8c0.1-0.2,0.3-0.2,0.4-0.1c0.1,0,1.1,0.8,2,0.8c0.7,0,1.2-0.4,1.2-1
			c0-0.7-0.6-1.1-1.6-1.6c-1.2-0.5-2.4-1.3-2.4-2.8c0-1.2,0.9-2.5,2.9-2.5c1.3,0,2.3,0.7,2.6,0.9c0.1,0.1,0.2,0.3,0.1,0.4l-0.5,0.7
			c-0.1,0.2-0.3,0.3-0.5,0.2c-0.1-0.1-1.1-0.7-1.8-0.7c-0.7,0-1.1,0.5-1.1,0.9c0,0.6,0.5,1,1.5,1.4c1.3,0.5,2.7,1.3,2.7,2.9
			c0,1.3-1.2,2.6-3,2.6c-1.6,0-2.6-0.8-2.8-1C17,23.5,17,23.5,17.1,23.3z"/>
	</g>
</g>
</svg>
