<?xml version="1.0" encoding="utf-8"?>
<!-- Generator: Adobe Illustrator 18.0.0, SVG Export Plug-In . SVG Version: 6.00 Build 0)  -->
<!DOCTYPE svg PUBLIC "-//W3C//DTD SVG 1.1//EN" "http://www.w3.org/Graphics/SVG/1.1/DTD/svg11.dtd">
<svg version="1.1" id="Layer_1" xmlns="http://www.w3.org/2000/svg" xmlns:xlink="http://www.w3.org/1999/xlink" x="0px" y="0px"
	 width="43px" height="43px" viewBox="0 0 43 43" enable-background="new 0 0 43 43" xml:space="preserve">
<g>
	<g>
		<g>
			<path fill="#A5A5A5" d="M21.5,3.8c0.2,0,0.4,0,0.5,0.1l14.5,8.3c0.3,0.2,0.5,0.5,0.5,0.9v16.6c0,0.4-0.2,0.7-0.5,0.9L22,39.1
				c-0.2,0.1-0.3,0.1-0.5,0.1c-0.2,0-0.4,0-0.5-0.1L6.5,30.7c-0.3-0.2-0.5-0.5-0.5-0.9V13.2c0-0.4,0.2-0.7,0.5-0.9L21,4
				C21.1,3.9,21.3,3.8,21.5,3.8 M21.5,2.9c-0.4,0-0.7,0.1-1,0.3L6,11.5c-0.6,0.4-1,1-1,1.7v16.6c0,0.7,0.4,1.4,1,1.7l14.5,8.3
				c0.3,0.2,0.7,0.3,1,0.3s0.7-0.1,1-0.3L37,31.5c0.6-0.4,1-1,1-1.7V13.2c0-0.7-0.4-1.4-1-1.7L22.5,3.2C22.2,3,21.9,2.9,21.5,2.9
				L21.5,2.9z"/>
		</g>
	</g>
	<g>
		<path fill="#A5A5A5" d="M17.7,17c0-0.1,0.1-0.3,0.3-0.3h1.3c0.1,0,0.3,0.1,0.3,0.3v5.5c0,1.2,0.8,2.1,2,2.1s2-0.9,2-2V17
			c0-0.1,0.1-0.3,0.3-0.3H25c0.1,0,0.3,0.1,0.3,0.3v5.6c0,2.1-1.6,3.7-3.8,3.7c-2.1,0-3.8-1.7-3.8-3.7V17z"/>
	</g>
</g>
</svg>
